# xmcd
#
# Track frame offsets:
#	150
#	14819
#	34659
#	47470
#	63705
#	83024
#	102445
#	117407
#	132850
#	146312
#	160348
#	173529
#
# Disc length: 2529 seconds
#
# Revision: 1
# Processed by: cddbd v1.5.2PL0 Copyright (c) Steve Scherf et al.
# Submitted via: audiograbber 1.83.01
#
DISCID=9c09df0c
DTITLE=Georges Hamel - Au Coeur De La Vie
DYEAR=2005
DGENRE=Country
TTITLE0=Au Coeur De La Vie(Georges Hamel-Georges Hamel)
TTITLE1=Refrain à Mon Père(Denis Champoux-Denis Champoux)
TTITLE2=Le Refus De L'enfant(Denis Champoux-Denis Champoux)
TTITLE3=Je Passe Dans Ta Rue(Denis Champoux-Denis Champoux)
TTITLE4=La Musique Est Un Beau Métier(Denis Champoux-Denis Champoux)
TTITLE5=Vivre Son Âge AU Présent(Denis Champoux-Denis Champoux)
TTITLE6=Ces Mots Précieux(Denis Champoux-Denis Champoux)
TTITLE7=A Propos De Mon Village(Denis Champoux-Denis Champoux)
TTITLE8=Ferme Pas Les Yeux Sur La Misère(Denis Champoux-Denis Champoux)
TTITLE9=Comme La Vie Passe(Denis Champoux-Denis Champoux)
TTITLE10=Pourrait-On Vivre Sans Amour(Denis Champoux-Denis Champoux)
TTITLE11=Cette Vie Qui T'attends(Denis Champoux-Denis Champoux)
EXTD=
EXTT0=
EXTT1=
EXTT2=
EXTT3=
EXTT4=
EXTT5=
EXTT6=
EXTT7=
EXTT8=
EXTT9=
EXTT10=
EXTT11=
PLAYORDER=
